PathFileType	4	(X/Y/Z)	\\Move.snu.ac.kr\motion\Animal\091204_091205_Bird\091205_bird\Project 2\Capture day 2\Session 1\pigeon_013.trc
DataRate	CameraRate	NumFrames	NumMarkers	Units	OrigDataRate	OrigDataStartFrame	OrigNumFrames
240.0	240.0	19	14	mm	240.0	1	3189
Frame#	Time	14MarkersBird:Head			14MarkersBird:C_back			14MarkersBird:Spine			14MarkersBird:L-shoulder			14MarkersBird:L-elbow			14MarkersBird:L-wrist			14MarkersBird:L-hand			14MarkersBird:R-shoulder			14MarkersBird:R-elbow			14MarkersBird:R-Wrist			14MarkersBird:R-hand			14MarkersBird:C_Tail			14MarkersBird:L-Tale			14MarkersBird:R-Tale			
		X1	Y1	Z1	X2	Y2	Z2	X3	Y3	Z3	X4	Y4	Z4	X5	Y5	Z5	X6	Y6	Z6	X7	Y7	Z7	X8	Y8	Z8	X9	Y9	Z9	X10	Y10	Z10	X11	Y11	Z11	X12	Y12	Z12	X13	Y13	Z13	X14	Y14	Z14	

1569	6.533	327.59283	1594.54456	1668.89539	328.75204	1567.27686	1725.06763	335.08023	1550.57043	1775.39197	300.82068	1571.12817	1698.33997	278.13474	1567.84290	1717.17651	253.31592	1554.95679	1683.90234	229.88181	1549.24219	1673.43872	348.86636	1552.93726	1686.72266	370.66608	1546.59070	1695.25146	372.54395	1522.36206	1661.22815	390.85672	1499.47803	1638.56799	309.82581	1457.63440	1858.22925	239.93243	1517.36487	1815.25830	405.72028	1456.93237	1799.52490	
1570	6.537	324.54593	1597.63757	1664.09216	326.23996	1572.78564	1721.25647	332.46967	1556.36572	1771.47009	298.17087	1575.76965	1693.94385	275.44974	1568.05078	1711.35815	257.70496	1553.86938	1674.31152	239.32655	1542.16211	1659.76440	345.56058	1557.23828	1683.41492	365.88504	1547.21216	1690.37488	359.30389	1524.31445	1656.26721	368.07819	1497.88806	1632.09009	308.05264	1464.45288	1855.60608	237.31915	1522.55469	1811.38232	404.49194	1464.21814	1796.86145	
1571	6.542	321.48901	1600.31787	1658.97717	323.68768	1578.07422	1717.06824	329.63928	1561.80884	1767.32922	295.61847	1580.39050	1689.49866	273.19098	1568.95239	1707.16064	262.14154	1556.87744	1667.17834	250.23187	1541.16748	1649.63025	342.56332	1561.82104	1679.96130	361.51584	1549.46533	1687.03137	348.81067	1530.28088	1652.78918	348.16092	1502.65369	1628.11340	306.50217	1471.47803	1853.22583	234.82571	1527.86340	1808.02209	402.33017	1470.63098	1794.30994	
1572	6.546	318.41684	1602.64832	1653.61414	320.98483	1583.06091	1712.42603	326.59436	1566.89380	1762.90479	293.06381	1584.84326	1684.92981	271.12097	1571.31421	1704.64661	264.78290	1563.62317	1662.60901	259.21851	1546.08215	1643.10608	339.89194	1566.61682	1676.17749	358.28555	1553.45630	1685.14624	342.50894	1539.46973	1650.24707	334.10983	1512.37524	1625.45972	304.84567	1478.52454	1850.78455	232.40932	1533.40662	1805.07349	398.88986	1475.86609	1791.86047	
1573	6.550	315.31686	1604.70007	1648.10034	318.09433	1587.67041	1707.33472	323.39105	1571.63074	1758.15344	290.43076	1589.00366	1680.17468	269.19281	1575.65710	1703.20435	264.63239	1573.08447	1660.20386	263.64294	1555.24219	1639.65601	337.46991	1571.50085	1672.08960	356.34454	1559.24072	1684.44312	340.71829	1550.64087	1648.20129	327.65430	1524.63367	1623.20447	302.69318	1485.31421	1847.95715	229.94917	1539.12744	1802.18359	394.04608	1479.84216	1789.41418	
1574	6.554	312.18085	1606.54346	1642.52271	315.06351	1591.84705	1701.87976	320.09561	1576.05884	1753.12793	287.68658	1592.79395	1675.21777	267.50211	1582.02393	1702.22668	261.87915	1584.20215	1659.27222	262.43781	1566.42383	1638.54028	335.19266	1576.36768	1667.78589	355.11649	1566.81970	1684.51416	342.62454	1562.67395	1646.45581	328.85272	1537.05884	1621.14954	299.71823	1491.55835	1844.53027	227.25134	1544.80884	1798.85022	387.93356	1482.74597	1786.80579	
1575	6.558	309.02469	1608.24609	1636.94006	311.98471	1595.57324	1696.19226	316.75095	1580.21362	1747.95081	284.85019	1596.19690	1670.07971	266.48328	1589.97949	1701.10999	257.68704	1596.25549	1659.17542	256.30038	1577.95667	1639.39294	332.91446	1581.19019	1663.30518	353.50604	1576.00708	1684.85339	346.65961	1575.00635	1645.03613	336.31052	1548.44128	1619.91089	295.75714	1497.04333	1840.41663	224.10501	1550.20715	1794.59119	380.93469	1484.96082	1783.83618	
1576	6.563	305.88159	1609.89014	1631.40649	308.94943	1598.90393	1690.40637	313.38019	1584.08545	1742.69934	281.98627	1599.28113	1664.76709	266.66110	1598.70959	1699.39526	253.58844	1608.73840	1659.48193	247.33678	1589.26135	1642.52258	330.41000	1586.01001	1658.66211	350.40320	1586.28540	1684.88196	350.97510	1587.53918	1644.12891	347.68161	1559.17883	1620.59851	290.83807	1501.67688	1835.59521	220.38235	1555.16675	1789.12915	373.66849	1486.93359	1780.33752	
1577	6.567	302.79404	1611.57007	1625.98523	306.01904	1601.97791	1684.63245	309.99255	1587.67151	1737.39587	279.20035	1602.17444	1659.26819	268.29437	1607.31006	1696.81921	250.85629	1621.05139	1659.84607	238.39784	1600.63599	1648.35388	327.45706	1590.87268	1653.90479	345.22012	1596.82837	1684.04895	353.89056	1600.23657	1643.89050	360.13745	1570.81372	1624.10242	285.13681	1505.49817	1830.09558	216.11433	1559.65076	1782.45703	366.89276	1489.04333	1776.23584	
1578	6.571	299.80820	1613.37720	1620.71838	303.19620	1604.98657	1678.94128	306.59039	1591.01160	1732.08179	276.59332	1605.00134	1653.60889	271.23840	1615.34045	1693.41370	250.14331	1632.50159	1659.86682	232.12653	1612.71350	1656.36780	323.99545	1595.72510	1649.11536	338.10190	1606.73645	1681.99121	354.28430	1612.86670	1644.20337	370.87762	1584.95337	1630.44666	278.90314	1508.64551	1824.01599	211.47453	1563.73340	1774.80627	361.30774	1491.51465	1771.55542	
1579	6.575	296.97116	1615.38965	1615.59436	300.32974	1607.87012	1673.36011	303.18216	1594.14392	1726.82275	274.21609	1607.79456	1647.90857	275.08127	1622.47302	1689.36975	251.42461	1642.64673	1659.16052	229.98907	1626.00403	1664.79846	320.18655	1600.37549	1644.35962	329.65247	1615.57813	1678.74084	351.79245	1625.07800	1644.65796	377.59674	1602.23218	1638.73254	272.39017	1511.28174	1817.51733	206.70271	1567.60718	1766.61084	357.38025	1494.45093	1766.35046	
1580	6.579	294.31287	1617.67224	1610.58057	297.42587	1610.55688	1667.94495	299.77808	1597.07751	1721.67908	272.03543	1610.52405	1642.32483	278.62497	1627.05261	1684.26111	254.14925	1651.48694	1657.54321	232.03975	1640.56311	1671.54468	316.30612	1604.59485	1639.65210	320.55530	1623.14624	1674.49890	346.68680	1636.59863	1644.70984	378.74493	1621.95447	1647.49414	265.81036	1513.54126	1810.78430	202.03511	1571.55798	1758.43018	355.21445	1497.87500	1760.66382	
1581	6.583	291.83682	1620.24011	1605.64795	294.48804	1613.08008	1662.67664	296.37958	1599.78308	1716.68896	269.94684	1613.18018	1636.96143	279.89240	1630.30872	1677.89880	257.51004	1659.29407	1655.02014	237.51085	1655.75159	1675.22778	312.58798	1608.27600	1634.96606	311.84671	1628.03223	1668.65747	339.59518	1647.23962	1643.78479	373.78415	1642.50647	1655.12573	259.34753	1515.54736	1804.02405	197.65532	1575.83264	1750.77307	354.53067	1501.73767	1754.57141	
1582	6.588	289.52539	1623.03625	1600.75720	291.51968	1615.47290	1657.53601	292.97180	1602.22424	1711.89490	267.83246	1615.80981	1631.83777	279.05423	1633.27332	1670.81311	260.66614	1666.29736	1651.60999	245.34088	1670.30383	1675.45776	309.13593	1611.49182	1630.27246	304.46790	1631.49719	1661.11560	331.37982	1656.74023	1641.37439	363.43268	1662.05957	1660.19519	253.20494	1517.44922	1797.49487	193.63092	1580.42493	1743.85266	354.74911	1505.89026	1748.24890	
1583	6.592	287.30466	1625.95374	1595.86865	288.52420	1617.76855	1652.50415	289.53503	1604.40503	1707.35022	265.61551	1618.49438	1626.90649	276.41394	1636.15857	1663.35242	262.76605	1672.54431	1647.33337	254.08682	1682.83728	1672.54480	305.98920	1614.40576	1625.57458	298.32275	1634.95105	1652.67981	323.22842	1664.76624	1637.18652	349.71536	1679.13220	1661.59253	247.61943	1519.41248	1791.49182	189.89171	1585.06519	1737.52966	355.14410	1510.07727	1741.99841	
1584	6.596	285.07407	1628.89795	1590.96497	285.50507	1620.00000	1647.56177	286.08484	1606.33557	1703.03589	263.26190	1621.27100	1622.10144	272.43317	1639.19189	1655.93176	262.90161	1677.97119	1642.39221	261.68967	1692.52209	1667.20715	303.20041	1617.14771	1620.87402	293.34326	1638.79883	1643.89319	316.64166	1671.03503	1631.32227	335.76031	1692.90967	1658.71265	242.81062	1521.56458	1786.23828	186.31401	1589.44238	1731.49817	355.05750	1514.02136	1736.19055	
1585	6.600	282.80377	1631.83459	1586.04456	282.46564	1622.20056	1642.68994	282.70850	1607.96851	1698.73486	260.75189	1624.08228	1617.38721	267.98041	1642.64758	1649.04761	260.24106	1682.47815	1637.23621	265.70639	1699.46899	1660.39441	300.81827	1619.75342	1616.13464	289.87418	1642.83264	1635.57886	313.03467	1675.38025	1624.36023	325.18903	1703.23877	1651.80835	238.91933	1523.98254	1781.77478	182.83325	1593.35547	1725.51794	354.05856	1517.55017	1731.12976	
1586	6.604	280.54987	1634.76489	1581.10071	279.40939	1624.40332	1637.86963	279.51364	1609.32190	1694.15454	258.06705	1626.84827	1612.74377	263.32645	1646.23438	1642.83008	254.32350	1685.86365	1632.37109	264.00238	1704.48181	1653.11548	298.82166	1622.18652	1611.31165	288.29077	1646.54590	1628.76868	313.10022	1677.69543	1617.15149	320.93332	1710.23022	1642.08240	235.96783	1526.73999	1777.93921	179.47617	1596.67627	1719.52844	351.99554	1520.65979	1726.91724	
1587	6.608	278.33911	1637.67859	1576.11560	276.33972	1626.64148	1633.08142	276.52274	1610.67761	1689.21936	255.21680	1629.52588	1608.11572	257.88837	1649.09375	1636.93909	245.30730	1687.79004	1628.02686	255.53224	1708.23083	1646.19482	297.07718	1624.37927	1606.36670	288.50635	1649.47791	1623.58044	316.42578	1677.89856	1610.35181	323.95932	1713.64258	1631.18164	233.82265	1529.90051	1774.43213	176.30925	1599.30127	1713.63318	349.01718	1523.52588	1723.38708	
